<svg width="45" height="51" viewBox="0 0 45 51" fill="none" xmlns="http://www.w3.org/2000/svg">
<path d="M44.8275 8.03166L21.8275 21.5317C11.8271 18.0315 2.82793 13.5315 7.82746 7.03145C12.8273 2.03179 22.8275 9.53189 23.8275 8.53189C23.8275 8.53189 25.3279 5.53177 29.3275 0.0316646C36.3279 -0.468461 41.9941 5.03166 44.8275 8.03166Z" fill="#42B4EE"/>
<path d="M0.402934 20.4998C7.90293 22.8331 22.1029 29.2998 18.9029 36.4998C11.9033 43.9998 -2.59659 37.4998 0.402934 20.4998Z" fill="#42B4EE"/>
<path d="M29.4033 34.9998C27.0033 42.5998 16.0699 45.4998 10.9033 45.9998C23.7033 55.9999 37.9033 48.1665 43.4033 42.9998C39.7366 37.1664 37.4033 39.9998 29.4033 34.9998Z" fill="#42B4EE"/>
</svg>
