<svg width="32" height="32" viewBox="0 0 32 32" fill="none" xmlns="http://www.w3.org/2000/svg">
<g id="Group 8">
<path id="Vector" d="M16 32C24.8366 32 32 24.8366 32 16C32 7.16344 24.8366 0 16 0C7.16344 0 0 7.16344 0 16C0 24.8366 7.16344 32 16 32Z" fill="#5D50C6"/>
<path id="Vector_2" d="M20.8 8.20001H11.2C9.53331 8.20001 8.19998 9.53334 8.19998 11.2V20.8C8.19998 22.4667 9.53331 23.8 11.2 23.8H20.8C22.4667 23.8 23.8 22.4667 23.8 20.8V11.2C23.8 9.53334 22.4667 8.20001 20.8 8.20001ZM21.6667 10H22V12.6667H19.3333V10H21.6667ZM13.8 14.4C14.2667 13.7333 15.1333 13.2667 16 13.2667C16.8667 13.2667 17.7333 13.7333 18.2 14.4C18.5333 14.8667 18.7333 15.4 18.7333 16C18.7333 17.5333 17.4667 18.7333 16 18.7333C14.5333 18.7333 13.2667 17.5334 13.2667 16C13.2667 15.4 13.4667 14.8667 13.8 14.4ZM22.2667 20.8C22.2667 21.6 21.6 22.2667 20.8 22.2667H11.2C10.4 22.2667 9.73332 21.6 9.73332 20.8V14.4H12.0666C11.8666 14.8667 11.7333 15.4667 11.7333 16C11.7333 18.3334 13.6667 20.2667 16 20.2667C18.3333 20.2667 20.2667 18.3334 20.2667 16C20.2667 15.4667 20.1333 14.8667 19.9333 14.4H22.2666L22.2667 20.8Z" fill="white"/>
</g>
</svg>
