<svg width="32" height="32" viewBox="0 0 32 32" fill="none" xmlns="http://www.w3.org/2000/svg">
<g id="Group">
<path id="Vector" d="M16 32C24.8366 32 32 24.8366 32 16C32 7.16344 24.8366 0 16 0C7.16344 0 0 7.16344 0 16C0 24.8366 7.16344 32 16 32Z" fill="#5D50C6"/>
<g id="Group_2">
<path id="Vector_2" d="M25.8006 11.4987C25.1149 11.8027 24.3774 12.0084 23.6038 12.1002C24.3936 11.627 24.9997 10.8784 25.2858 9.98477C24.5468 10.4231 23.7279 10.7412 22.8572 10.9126C22.1595 10.1696 21.1655 9.70526 20.0649 9.70526C17.9532 9.70526 16.2404 11.418 16.2404 13.5297C16.2404 13.8295 16.2744 14.1212 16.34 14.4013C13.1616 14.2419 10.3433 12.7194 8.45693 10.4049C8.12779 10.9696 7.93898 11.627 7.93898 12.3278C7.93898 13.6544 8.61465 14.8254 9.64029 15.5111C9.01367 15.4914 8.42356 15.3194 7.90817 15.0322C7.90789 15.0485 7.90789 15.0647 7.90789 15.0807C7.90789 16.9338 9.22672 18.4793 10.9759 18.8304C10.6554 18.9183 10.3168 18.9648 9.96857 18.9648C9.72157 18.9648 9.48228 18.9411 9.24897 18.8966C9.73555 20.4157 11.1476 21.5214 12.8216 21.5525C11.5124 22.5784 9.86361 23.1897 8.07132 23.1897C7.76328 23.1897 7.45811 23.1717 7.15948 23.136C8.8511 24.2216 10.8619 24.8545 13.0215 24.8545C20.0561 24.8545 23.903 19.0269 23.903 13.9727C23.903 13.8069 23.8993 13.6418 23.8919 13.4781C24.6397 12.939 25.288 12.2656 25.8006 11.4987Z" fill="#F1F2F2"/>
</g>
</g>
</svg>
